<?xml version="1.0" standalone="no"?>
<!DOCTYPE svg PUBLIC "-//W3C//DTD SVG 20010904//EN"
 "http://www.w3.org/TR/2001/REC-SVG-20010904/DTD/svg10.dtd">
<svg version="1.0" xmlns="http://www.w3.org/2000/svg"
 width="807.000000pt" height="807.000000pt" viewBox="0 0 807.000000 807.000000"
 preserveAspectRatio="xMidYMid meet">
<metadata>
Created by potrace 1.11, written by Peter Selinger 2001-2013
</metadata>
<g transform="translate(0.000000,807.000000) scale(0.100000,-0.100000)"
fill="#000000" stroke="none">
<path d="M3290 7860 c0 -3 -20 -13 -43 -23 -53 -21 -154 -117 -140 -131 4 -3
2 -6 -4 -6 -6 0 -16 -13 -23 -30 -7 -16 -16 -30 -21 -30 -5 0 -6 -6 -3 -14 3
-7 -2 -20 -10 -29 -8 -8 -12 -17 -9 -20 3 -4 2 -14 -2 -24 -5 -10 -10 -29 -12
-43 -2 -13 -7 -27 -11 -30 -4 -3 -8 -12 -8 -20 -2 -29 -39 -195 -44 -200 -3
-3 -5 -16 -6 -30 -1 -14 -4 -43 -7 -65 -4 -22 -9 -56 -12 -75 -9 -57 -20 -104
-43 -180 -9 -30 -17 -57 -17 -60 -7 -35 -19 -76 -24 -80 -8 -6 -31 -67 -37
-99 -3 -13 -12 -37 -20 -52 -8 -16 -14 -31 -14 -34 -1 -23 -14 -65 -22 -65 -5
0 -7 -4 -4 -8 2 -4 -4 -35 -15 -67 -11 -33 -22 -69 -23 -80 -2 -11 -11 -49
-21 -85 -18 -67 -21 -84 -31 -135 -3 -16 -10 -50 -15 -75 -6 -25 -13 -54 -15
-65 -3 -11 -5 -37 -5 -57 -1 -21 -4 -38 -8 -38 -4 0 -6 -20 -5 -45 1 -25 -2
-47 -6 -50 -5 -3 -6 -17 -4 -33 l4 -27 -72 1 c-84 1 -320 -17 -378 -30 -8 -1
-37 -6 -65 -10 -144 -22 -355 -88 -503 -157 -177 -82 -357 -233 -454 -380 -45
-68 -104 -196 -114 -243 -35 -177 -39 -212 -38 -336 0 -90 6 -160 18 -210 9
-41 19 -84 21 -94 14 -61 78 -205 140 -315 24 -42 72 -108 103 -141 18 -19 42
-48 54 -65 29 -41 186 -171 283 -235 108 -71 275 -150 419 -200 66 -22 121
-42 123 -44 3 -2 -17 -100 -52 -266 -42 -200 -152 -619 -249 -950 -48 -166
-122 -446 -130 -495 -34 -191 -3 -333 109 -500 53 -79 170 -206 234 -255 19
-14 47 -37 65 -51 254 -209 825 -443 1261 -514 17 -3 53 -10 80 -15 28 -5 77
-12 110 -16 33 -3 69 -8 79 -10 64 -12 221 -19 426 -19 261 0 344 6 515 36 33
6 72 12 86 14 44 6 150 35 250 70 312 107 511 263 592 463 50 122 52 164 49
893 -3 582 7 1088 23 1199 2 14 6 72 10 130 7 124 13 172 26 222 5 20 9 40 8
45 -2 4 1 24 4 43 4 19 9 58 11 86 9 98 18 169 27 190 8 24 -10 23 704 26 364
1 496 20 579 80 78 56 101 120 113 308 8 129 -28 216 -137 334 -147 157 -498
339 -962 498 -71 23 -128 47 -128 51 0 4 9 29 21 55 11 26 27 63 35 82 9 19
19 44 24 55 14 29 71 205 76 232 2 12 9 34 14 48 5 14 7 25 4 25 -4 0 -1 6 5
13 6 8 8 17 5 20 -3 3 -2 11 2 18 4 7 9 22 10 34 1 11 7 47 13 80 6 33 13 87
17 120 11 110 4 711 -11 800 -2 17 -7 53 -10 80 -8 65 -13 91 -19 113 -3 9 -8
31 -11 47 -8 38 -13 59 -15 63 -2 1 -3 5 -5 10 -3 11 -25 64 -43 102 -21 47
-88 112 -136 134 -51 24 -165 22 -238 -3 -29 -10 -60 -20 -68 -22 -8 -2 -21
-10 -28 -16 -7 -7 -22 -13 -33 -13 -10 0 -19 -4 -19 -9 0 -4 -22 -20 -49 -34
-43 -22 -247 -153 -261 -167 -11 -11 -96 -77 -103 -81 -14 -7 -193 -184 -190
-188 1 -2 -13 -22 -32 -45 -19 -23 -41 -48 -48 -57 -8 -8 -17 -22 -21 -30 -21
-43 -34 -58 -42 -51 -5 4 -6 3 -2 -1 7 -9 -100 -229 -114 -235 -5 -2 -6 -7 -3
-12 3 -4 -7 -34 -22 -66 -14 -33 -28 -68 -30 -79 -2 -10 -8 -22 -14 -26 -6 -3
-10 -9 -10 -13 2 -18 -13 -66 -20 -66 -5 0 -6 -6 -3 -14 3 -8 1 -17 -5 -20 -6
-4 -8 -13 -4 -21 3 -8 1 -15 -4 -15 -5 0 -10 -6 -10 -12 0 -12 -36 -130 -50
-168 -9 -22 -14 -41 -20 -72 -3 -16 -8 -28 -12 -28 -7 0 -195 62 -199 66 -2 1
2 20 9 41 7 21 14 41 15 46 1 4 3 10 4 15 1 4 3 12 4 17 1 6 5 29 10 53 24
127 31 237 31 487 0 310 -13 444 -57 583 -11 34 -21 68 -22 75 -8 38 -21 75
-33 93 -7 11 -10 24 -6 27 3 4 1 7 -5 7 -7 0 -12 5 -12 11 0 16 -82 181 -98
197 -7 8 -10 17 -7 22 3 5 2 10 -3 12 -4 1 -36 46 -72 98 -35 52 -67 97 -72
98 -4 2 -8 10 -8 17 0 7 -3 15 -7 17 -5 2 -45 49 -91 106 -117 145 -120 148
-190 204 -61 47 -153 98 -179 98 -7 0 -13 4 -13 9 0 4 -18 8 -40 7 -22 0 -40
-3 -40 -6z"/>
</g>
</svg>
